Fly_normalized_Motion_pl01
version=1
nRows=8
nColumns=43
inDegrees=yes
endheader
time		pelvis_tilt		pelvis_list		pelvis_rotation		pelvis_tx		pelvis_ty		pelvis_tz		hip_flexion_r		hip_adduction_r		hip_rotation_r		knee_angle_r		ankle_angle_r		subtalar_angle_r		mtp_angle_r		hip_flexion_l		hip_adduction_l		hip_rotation_l		knee_angle_l		ankle_angle_l		subtalar_angle_l		mtp_angle_l		lumbar_extension		lumbar_bending		lumbar_rotation		neck_flexion		neck_lateral_bending		neck_rotation		arm_flex_r		arm_add_r		arm_rot_r		elbow_flex_r		pro_sup_r		wrist_flex_r		wrist_dev_r		hand_finger_flex_r		arm_flex_l		arm_add_l		arm_rot_l		elbow_flex_l		pro_sup_l		wrist_flex_l		wrist_dev_l		hand_finger_flex_l		
4.155000		1.843453		-3.363553		99.054789		-0.026582		1.384457		0.827333		31.230602		-4.267614		-15.074989		-29.271140		-16.347493		11.341156		33.668943		33.159275		-5.048498		-10.205613		-30.263827		-21.783095		3.922576		10.309187		-30.190212		6.377594		4.811692		-16.685034		11.049791		-8.918580		-48.908265		-26.036193		-9.633008		64.422385		125.599124		-1.179028		-5.358301		-34.718200		-91.763900		-37.297319		-36.877908		74.621682		144.387808		-0.827749		-10.371658		-27.546662		
4.159015		1.762248		-3.207825		99.089677		-0.027466		1.372638		0.818361		30.553414		-4.379460		-15.089242		-28.011208		-16.297713		11.367951		33.637648		32.591940		-4.920313		-10.293218		-29.342713		-21.802584		3.921581		10.268230		-29.581907		6.359575		4.867714		-17.223876		10.940528		-9.038555		-51.200346		-25.250166		-10.060340		64.045968		125.705999		-1.341494		-5.370602		-34.565117		-93.661763		-35.948014		-37.338444		73.596604		144.590669		-0.637905		-10.256588		-27.538768		
4.163030		1.719037		-2.858094		99.123954		-0.028156		1.361161		0.809077		29.539065		-4.420278		-15.218252		-26.567301		-16.557013		11.057127		33.583444		31.519381		-4.839384		-10.475767		-27.829185		-21.775634		3.812836		10.200022		-29.041715		6.382881		5.050320		-18.939521		10.840315		-9.280189		-53.577893		-23.920619		-11.277352		63.823772		125.995392		-1.705864		-5.573214		-34.308907		-95.636939		-34.588049		-38.216269		72.786265		145.031395		-0.250870		-10.216858		-27.440232		
4.167045		1.629591		-2.205220		99.126829		-0.028890		1.350110		0.799438		28.192475		-4.371581		-14.998129		-25.155414		-16.802677		10.545243		33.465069		30.041508		-4.778169		-10.789528		-26.267254		-21.712942		3.589667		10.097061		-28.877679		6.431068		5.363434		-20.053623		10.633885		-9.613185		-55.703369		-22.559049		-12.587317		63.167800		127.040409		-1.821758		-6.090424		-33.530648		-97.435502		-33.705437		-38.785129		72.030253		146.064814		0.916038		-10.180185		-27.081166		
4.171061		1.601873		-2.023188		99.158704		-0.029696		1.338110		0.790424		27.525495		-4.387427		-14.847652		-24.000919		-16.762852		10.383867		33.424683		29.380187		-4.709161		-10.903705		-25.225209		-21.628585		3.454412		10.059454		-28.353555		6.450739		5.477497		-20.526576		10.611557		-9.750569		-57.548276		-21.602794		-13.183029		62.460347		127.330442		-1.943275		-6.089943		-33.329451		-98.763066		-32.458162		-39.219331		70.843438		146.377678		1.305093		-9.921920		-26.985322		
4.175076		1.596113		-1.945185		99.190121		-0.030426		1.325857		0.781640		27.018575		-4.402408		-14.736330		-22.950216		-16.690131		10.238143		33.403445		28.891017		-4.647868		-10.968429		-24.297930		-21.547548		3.313336		10.036574		-27.749107		6.443833		5.547380		-20.976069		10.621681		-9.814621		-59.223711		-20.699311		-13.650647		61.737262		127.422794		-2.097179		-5.959582		-33.286651		-99.940779		-31.154150		-39.573606		69.590432		146.510867		1.513618		-9.633824		-26.944995		
4.179091		1.479539		-1.499015		99.208179		-0.030960		1.314466		0.772122		25.909423		-4.407481		-14.464628		-21.673094		-17.031951		9.273950		33.317774		27.731719		-4.532271		-11.234549		-22.943581		-21.585458		2.798555		9.957039		-27.365739		6.451501		5.698439		-22.934348		10.404956		-9.716761		-60.772586		-19.253491		-14.892246		60.812793		127.946656		-2.562075		-6.078793		-33.023910		-101.034858		-30.238794		-40.056454		68.385156		147.025277		2.231661		-9.476417		-26.700122		
4.183106		1.578819		-1.496815		99.134866		-0.031352		1.302133		0.763434		25.427552		-4.242837		-14.258077		-20.477984		-17.170251		8.919206		33.291792		27.124671		-4.561287		-11.163255		-21.570543		-21.453541		2.572305		9.929335		-26.705691		6.505866		5.845385		-23.453832		10.397145		-9.818355		-62.051276		-18.295280		-15.543876		59.913036		127.994998		-2.785703		-5.839079		-32.999961		-101.723390		-28.952275		-40.430989		67.003934		147.131562		2.489061		-9.122158		-26.616039		
